<svg width="120" height="120" viewBox="0 0 120 120" fill="none" xmlns="http://www.w3.org/2000/svg">
<g clip-path="url(#clip0_3_101)">
<rect width="120" height="120" rx="20" fill="#CCCCFF"/>
<g filter="url(#filter0_i_3_101)">
<path d="M66.1502 28.8613C70.5812 27.0156 73.6525 23.0576 73.6525 18.4844C73.6525 12.1475 67.7679 7 60.5234 7C53.279 7 47.3944 12.1475 47.3944 18.4844C47.3944 23.0576 50.4656 27.0156 54.8967 28.8613V49.123C54.2403 49.3896 53.6072 49.7178 53.0211 50.0869L34.2419 40.6943C34.617 36.4287 32.2256 32.1631 27.7008 29.8662C21.4176 26.6875 13.3995 28.5742 9.76555 34.0703C6.13161 39.5664 8.28853 46.5801 14.5717 49.7588C14.8765 49.9229 15.1813 50.0664 15.5095 50.1895V68.8105C15.2047 68.9336 14.8765 69.0771 14.5717 69.2412C8.28853 72.4199 6.13161 79.4336 9.76555 84.9297C13.3995 90.4258 21.4176 92.3125 27.7008 89.1338C32.2256 86.8574 34.5935 82.5713 34.2184 78.3057L46.058 72.3789C43.3619 70.082 41.3925 67.1289 40.4782 63.8271L28.6386 69.7744C28.029 69.4053 27.4195 69.0977 26.763 68.8105V50.1895C27.4195 49.9229 28.0525 49.5947 28.6386 49.2256L47.4178 58.6182C47.3944 58.9053 47.3709 59.1924 47.3709 59.5C47.3709 64.0732 50.4422 68.0313 54.8733 69.877V90.1387C50.4422 91.9844 47.3709 95.9424 47.3709 100.516C47.3709 106.853 53.2556 112 60.5 112C67.7444 112 73.6291 106.853 73.6291 100.516C73.6291 95.9424 70.5578 91.9844 66.1267 90.1387V69.877C66.7832 69.6104 67.4162 69.2822 68.0023 68.9131L86.7816 78.3057C86.4065 82.5713 88.7978 86.8369 93.2992 89.1338C99.5824 92.3125 107.601 90.4258 111.234 84.9297C114.868 79.4336 112.711 72.4199 106.428 69.2412C106.123 69.0771 105.795 68.9336 105.49 68.8105V50.1895C105.819 50.0664 106.123 49.9229 106.428 49.7588C112.711 46.5801 114.868 39.5664 111.234 34.0703C107.601 28.5742 99.6293 26.6875 93.3461 29.8662C88.8213 32.1426 86.4534 36.4287 86.8285 40.6943L74.9654 46.6211C77.6616 48.918 79.6309 51.8711 80.5453 55.1729L92.4083 49.2256C93.0179 49.5947 93.6274 49.9023 94.2839 50.1895V68.8105C93.6274 69.0771 92.9944 69.4053 92.4083 69.7539L73.6291 60.3613C73.6525 60.0742 73.676 59.7871 73.676 59.4795C73.676 54.9062 70.6047 50.9482 66.1736 49.1025V28.8408L66.1502 28.8613Z" fill="white"/>
</g>
</g>
<defs>
<filter id="filter0_i_3_101" x="8" y="7" width="105" height="109" filterUnits="userSpaceOnUse" color-interpolation-filters="sRGB">
<feFlood flood-opacity="0" result="BackgroundImageFix"/>
<feBlend mode="normal" in="SourceGraphic" in2="BackgroundImageFix" result="shape"/>
<feColorMatrix in="SourceAlpha" type="matrix" values="0 0 0 0 0 0 0 0 0 0 0 0 0 0 0 0 0 0 127 0" result="hardAlpha"/>
<feOffset dy="4"/>
<feGaussianBlur stdDeviation="2"/>
<feComposite in2="hardAlpha" operator="arithmetic" k2="-1" k3="1"/>
<feColorMatrix type="matrix" values="0 0 0 0 0 0 0 0 0 0 0 0 0 0 0 0 0 0 0.4 0"/>
<feBlend mode="normal" in2="shape" result="effect1_innerShadow_3_101"/>
</filter>
<clipPath id="clip0_3_101">
<rect width="120" height="120" fill="white"/>
</clipPath>
</defs>
</svg>
